<svg width="19" height="18" viewBox="0 0 19 18" fill="none" xmlns="http://www.w3.org/2000/svg">
<path d="M8.82108 4.73496C8.6443 4.52282 8.32902 4.49416 8.11688 4.67094C7.90474 4.84772 7.87608 5.16301 8.05286 5.37515L8.82108 4.73496ZM11.5674 8.81158L11.9515 9.13168C12.106 8.94625 12.106 8.67692 11.9515 8.49149L11.5674 8.81158ZM8.05286 12.248C7.87608 12.4602 7.90474 12.7754 8.11688 12.9522C8.32902 13.129 8.6443 13.1003 8.82108 12.8882L8.05286 12.248ZM8.43697 5.05505L8.05286 5.37515L11.1833 9.13168L11.5674 8.81158L11.9515 8.49149L8.82108 4.73496L8.43697 5.05505ZM11.5674 8.81158L11.1833 8.49149L8.05286 12.248L8.43697 12.5681L8.82108 12.8882L11.9515 9.13168L11.5674 8.81158ZM9.5 0.5V1C13.9183 1 17.5 4.58172 17.5 9H18H18.5C18.5 4.02944 14.4706 -2.38419e-07 9.5 0V0.5ZM18 9H17.5C17.5 13.4183 13.9183 17 9.5 17V17.5V18C14.4706 18 18.5 13.9706 18.5 9H18ZM9.5 17.5V17C5.08172 17 1.5 13.4183 1.5 9H1H0.5C0.5 13.9706 4.52944 18 9.5 18V17.5ZM1 9H1.5C1.5 4.58172 5.08172 1 9.5 1V0.5V0C4.52944 2.08616e-07 0.5 4.02944 0.5 9H1Z" fill="#215491"/>
</svg>
