<svg width="19" height="18" viewBox="0 0 19 18" fill="none" xmlns="http://www.w3.org/2000/svg">
<path d="M10.1208 12.8874C10.2976 13.0995 10.6129 13.1282 10.825 12.9514C11.0372 12.7746 11.0658 12.4593 10.889 12.2472L10.1208 12.8874ZM7.37448 8.81073L6.99037 8.49064C6.83585 8.67606 6.83585 8.9454 6.99037 9.13082L7.37448 8.81073ZM10.889 5.37429C11.0658 5.16215 11.0372 4.84687 10.825 4.67009C10.6129 4.49331 10.2976 4.52197 10.1208 4.73411L10.889 5.37429ZM10.5049 12.5673L10.889 12.2472L7.75859 8.49064L7.37448 8.81073L6.99037 9.13082L10.1208 12.8874L10.5049 12.5673ZM7.37448 8.81073L7.75859 9.13082L10.889 5.37429L10.5049 5.0542L10.1208 4.73411L6.99037 8.49064L7.37448 8.81073ZM9.5 0.5V1C13.9183 1 17.5 4.58172 17.5 9H18H18.5C18.5 4.02944 14.4706 -2.38419e-07 9.5 0V0.5ZM18 9H17.5C17.5 13.4183 13.9183 17 9.5 17V17.5V18C14.4706 18 18.5 13.9706 18.5 9H18ZM9.5 17.5V17C5.08172 17 1.5 13.4183 1.5 9H1H0.5C0.5 13.9706 4.52944 18 9.5 18V17.5ZM1 9H1.5C1.5 4.58172 5.08172 1 9.5 1V0.5V0C4.52944 2.08616e-07 0.5 4.02944 0.5 9H1Z" fill="#215491"/>
</svg>
